<svg xmlns="http://www.w3.org/2000/svg" viewBox="0 90 960 240" width="960" height="240" preserveAspectRatio="xMidYMid slice"><defs><linearGradient id="g1" x1="0" y1="0" x2="0" y2="1"><stop offset="0" stop-color="#78b6e4"/><stop offset="1" stop-color="#f3e7d8"/></linearGradient><radialGradient id="r2" cx="0.5" cy="0.5" r="0.5"><stop offset="0" stop-color="#ffc98a" stop-opacity="0.45"/><stop offset="1" stop-color="#ffc98a" stop-opacity="0"/></radialGradient><filter id="vib" filterUnits="userSpaceOnUse" x="0" y="90" width="960" height="240"><feColorMatrix type="saturate" values="1.25"/><feComponentTransfer><feFuncR type="linear" slope="1.08"/><feFuncG type="linear" slope="1.08"/><feFuncB type="linear" slope="1.08"/></feComponentTransfer></filter></defs><g filter="url(#vib)"><rect width="960" height="400" fill="url(#g1)"/><circle cx="480" cy="140" r="76.80000000000001" fill="url(#r2)"/><circle cx="480" cy="140" r="24" fill="#fff1cf"/><polygon points="-60,300 133,105 179.8,50 237,125 470,300" fill="#6d7f6a"/><polygon points="179.8,50 237,125 470,300 192.8,300" fill="#5a6b57"/><polygon points="179.8,50 261,120 236.7,114 192,128 156.3,116 112.6,120" fill="#f2f5f2"/><polygon points="500,300 729.8,97.2 780.2,40 841.8,118 1060.5,300" fill="#6d7f6a"/><polygon points="780.2,40 841.8,118 1060.5,300 794.2,300" fill="#5a6b57"/><polygon points="780.2,40 858.7,112.8 835.1,106.8 792,120.8 752.7,108.8 701.7,112.8" fill="#f2f5f2"/><polygon points="0,300 960,300 960,400 0,400" fill="#7a9a63"/><path d="M430,400 C470,360 420,330 470,300 C510,280 450,250 480,214" stroke="#4b4f55" stroke-width="20" fill="none" stroke-linecap="round"/><path d="M430,400 C470,360 420,330 470,300 C510,280 450,250 480,214" stroke="#f8e27a" stroke-width="2" stroke-dasharray="10 10" fill="none"/><polygon points="33,320.1 45.4,354.6 20.6,354.6" fill="#3f5a35"/><polygon points="59.8,298.4 73.6,336.5 46.1,336.5" fill="#3f5a35"/><polygon points="89.7,320.4 106.6,367.4 72.7,367.4" fill="#3f5a35"/><polygon points="127.4,314.8 138.3,344.8 116.6,344.8" fill="#3f5a35"/><polygon points="174.9,304.8 188.2,341.8 161.6,341.8" fill="#3f5a35"/><polygon points="202.1,313.8 215.1,349.8 189.1,349.8" fill="#3f5a35"/><polygon points="228.4,301.3 239.5,332.1 217.3,332.1" fill="#3f5a35"/><polygon points="269.9,296.9 287.7,346.4 252.2,346.4" fill="#3f5a35"/><polygon points="309.7,315.2 326.6,362.1 292.9,362.1" fill="#3f5a35"/><polygon points="628.5,296.5 643.2,337.2 613.9,337.2" fill="#3f5a35"/><polygon points="665.9,302.3 679.8,340.8 652,340.8" fill="#3f5a35"/><polygon points="687.1,305.6 698.5,337.4 675.6,337.4" fill="#3f5a35"/><polygon points="742.3,308.8 756.1,347 728.6,347" fill="#3f5a35"/><polygon points="769.6,297.6 782.5,333.4 756.7,333.4" fill="#3f5a35"/><polygon points="812.5,327.1 826.2,365.1 798.8,365.1" fill="#3f5a35"/><polygon points="847.9,307.6 863.5,351 832.3,351" fill="#3f5a35"/><polygon points="868.6,325.8 884.1,369.1 853,369.1" fill="#3f5a35"/><polygon points="910.6,309.1 924.1,346.5 897.2,346.5" fill="#3f5a35"/></g></svg>