<svg xmlns="http://www.w3.org/2000/svg" viewBox="0 150 960 240" width="960" height="240" preserveAspectRatio="xMidYMid slice"><defs><linearGradient id="g1" x1="0" y1="0" x2="0" y2="1"><stop offset="0" stop-color="#5fb0e6"/><stop offset="1" stop-color="#dff3fb"/></linearGradient><linearGradient id="g2" x1="0" y1="0" x2="0" y2="1"><stop offset="0" stop-color="#2bb3c9"/><stop offset="1" stop-color="#1576a8"/></linearGradient><filter id="vib" filterUnits="userSpaceOnUse" x="0" y="150" width="960" height="240"><feColorMatrix type="saturate" values="1.25"/><feComponentTransfer><feFuncR type="linear" slope="1.08"/><feFuncG type="linear" slope="1.08"/><feFuncB type="linear" slope="1.08"/></feComponentTransfer></filter></defs><g filter="url(#vib)"><rect width="960" height="400" fill="url(#g1)"/><g fill="#ffffff" opacity="0.85"><ellipse cx="760" cy="70" rx="41.4" ry="14.4"/><ellipse cx="736.6" cy="73.6" rx="27" ry="10.8"/><ellipse cx="767.2" cy="61" rx="25.2" ry="13.5"/><ellipse cx="790.6" cy="72.7" rx="23.400000000000002" ry="9.9"/></g><rect x="0" y="200" width="960" height="200" fill="url(#g2)"/><rect x="425" y="368.4" width="60.6" height="2" rx="1" fill="#ffffff" opacity="0.28"/><rect x="233.2" y="340.8" width="28.2" height="2" rx="1" fill="#ffffff" opacity="0.28"/><rect x="823.7" y="363.3" width="79.7" height="2" rx="1" fill="#ffffff" opacity="0.28"/><rect x="894.3" y="282.4" width="52.6" height="2" rx="1" fill="#ffffff" opacity="0.28"/><rect x="1.5" y="298.9" width="43.2" height="2" rx="1" fill="#ffffff" opacity="0.28"/><rect x="209.7" y="304.6" width="71.9" height="2" rx="1" fill="#ffffff" opacity="0.28"/><rect x="7.7" y="371.1" width="73.2" height="2" rx="1" fill="#ffffff" opacity="0.28"/><rect x="441.3" y="274.4" width="42.2" height="2" rx="1" fill="#ffffff" opacity="0.28"/><rect x="811.8" y="279.9" width="52.4" height="2" rx="1" fill="#ffffff" opacity="0.28"/><rect x="696.7" y="236.7" width="53.1" height="2" rx="1" fill="#ffffff" opacity="0.28"/><rect x="526.1" y="250.1" width="26.9" height="2" rx="1" fill="#ffffff" opacity="0.28"/><rect x="96.6" y="300.1" width="36.7" height="2" rx="1" fill="#ffffff" opacity="0.28"/><rect x="617.8" y="366.5" width="70.9" height="2" rx="1" fill="#ffffff" opacity="0.28"/><rect x="325.5" y="348.5" width="47.2" height="2" rx="1" fill="#ffffff" opacity="0.28"/><path d="M0,170 C120,160 220,200 260,260 C280,300 240,360 300,400 L0,400Z" fill="#6e9a54"/><path d="M240,250 C270,300 230,360 290,400 L250,400 C210,360 240,300 220,262Z" fill="#c9a77a"/><path d="M960,160 C860,170 760,190 720,240 C700,270 760,300 700,330 C660,350 740,380 760,400 L960,400Z" fill="#577f45"/><path d="M720,240 C700,270 760,300 700,330 C680,345 700,370 730,400 L700,400 C670,370 660,345 690,325 C740,300 690,270 710,238Z" fill="#a9895f"/><path d="M300,330 C380,310 420,300 520,310" stroke="#e6fbff" stroke-width="3" fill="none" opacity="0.7"/><g transform="translate(520,300)"><polygon points="-26,0 26,0 18,10 -18,10" fill="#ffffff"/><polygon points="0,-34 0,-2 22,-2" fill="#ffffff"/><rect x="-1" y="-36" width="2" height="36" fill="#475569"/></g></g></svg>