<svg xmlns="http://www.w3.org/2000/svg" viewBox="0 130 960 240" width="960" height="240" preserveAspectRatio="xMidYMid slice"><defs><linearGradient id="g1" x1="0" y1="0" x2="0" y2="1"><stop offset="0" stop-color="#7cbbe6"/><stop offset="1" stop-color="#f8ecd0"/></linearGradient><radialGradient id="r2" cx="0.5" cy="0.5" r="0.5"><stop offset="0" stop-color="#ffd98a" stop-opacity="0.45"/><stop offset="1" stop-color="#ffd98a" stop-opacity="0"/></radialGradient><filter id="vib" filterUnits="userSpaceOnUse" x="0" y="130" width="960" height="240"><feColorMatrix type="saturate" values="1.25"/><feComponentTransfer><feFuncR type="linear" slope="1.08"/><feFuncG type="linear" slope="1.08"/><feFuncB type="linear" slope="1.08"/></feComponentTransfer></filter></defs><g filter="url(#vib)"><rect width="960" height="400" fill="url(#g1)"/><circle cx="820" cy="90" r="76.80000000000001" fill="url(#r2)"/><circle cx="820" cy="90" r="24" fill="#fff3cf"/><polygon points="0,210 960,205 960,400 0,400" fill="#d6c28a"/><path d="M300,210 C330,150 400,150 430,208Z" fill="#a58d5c"/><path d="M640,206 C660,170 700,168 720,205Z" fill="#b39a68"/><polygon points="0,212 960,207 960,222 0,228" fill="#c4ae74"/><polygon points="432.3,228 442.9,228 -444,400 -576,400" fill="#e1cf8f"/><polygon points="442.9,228 453.4,228 -312,400 -444,400" fill="#cdb876"/><polygon points="453.4,228 464,228 -180,400 -312,400" fill="#ead9a0"/><polygon points="464,228 474.6,228 -48,400 -180,400" fill="#bfa968"/><polygon points="474.6,228 485.1,228 84,400 -48,400" fill="#e1cf8f"/><polygon points="485.1,228 495.7,228 216,400 84,400" fill="#cdb876"/><polygon points="495.7,228 506.2,228 348,400 216,400" fill="#ead9a0"/><polygon points="506.2,228 516.8,228 480,400 348,400" fill="#bfa968"/><polygon points="516.8,228 527.4,228 612,400 480,400" fill="#e1cf8f"/><polygon points="527.4,228 537.9,228 744,400 612,400" fill="#cdb876"/><polygon points="537.9,228 548.5,228 876,400 744,400" fill="#ead9a0"/><polygon points="548.5,228 559,228 1008,400 876,400" fill="#bfa968"/><polygon points="559,228 569.6,228 1140,400 1008,400" fill="#e1cf8f"/><polygon points="569.6,228 580.2,228 1272,400 1140,400" fill="#cdb876"/><polygon points="580.2,228 590.7,228 1404,400 1272,400" fill="#ead9a0"/><polygon points="590.7,228 601.3,228 1536,400 1404,400" fill="#bfa968"/><path d="M560,228 C540,300 470,360 380,400" stroke="#8a7a5c" stroke-width="10" fill="none"/><g><rect x="610" y="226.2" width="14" height="9.8" fill="#f1e9d8"/><polygon points="607.9,226.2 617,219.2 626.1,226.2" fill="#b5573a"/></g><g><rect x="640" y="229.6" width="12" height="8.4" fill="#f1e9d8"/><polygon points="638.2,229.6 646,223.6 653.8,229.6" fill="#b5573a"/></g></g></svg>