<svg xmlns="http://www.w3.org/2000/svg" viewBox="0 120 960 240" width="960" height="240" preserveAspectRatio="xMidYMid slice"><defs><linearGradient id="g1" x1="0" y1="0" x2="0" y2="1"><stop offset="0" stop-color="#79b9e3"/><stop offset="1" stop-color="#e9f3f6"/></linearGradient><filter id="vib" filterUnits="userSpaceOnUse" x="0" y="120" width="960" height="240"><feColorMatrix type="saturate" values="1.25"/><feComponentTransfer><feFuncR type="linear" slope="1.08"/><feFuncG type="linear" slope="1.08"/><feFuncB type="linear" slope="1.08"/></feComponentTransfer></filter></defs><g filter="url(#vib)"><rect width="960" height="400" fill="url(#g1)"/><g fill="#ffffff" opacity="0.85"><ellipse cx="300" cy="80" rx="36.800000000000004" ry="12.8"/><ellipse cx="279.2" cy="83.2" rx="24" ry="9.600000000000001"/><ellipse cx="306.4" cy="72" rx="22.400000000000002" ry="12"/><ellipse cx="327.2" cy="82.4" rx="20.8" ry="8.8"/></g><polygon points="0,170 380,160 400,175 400,400 0,400" fill="#d8d2c4"/><polygon points="560,175 960,165 960,400 540,400" fill="#d8d2c4"/><polygon points="400,175 450,260 470,400 400,400" fill="#a99f8c"/><polygon points="560,175 520,260 500,400 540,400" fill="#bdb3a0"/><polygon points="450,260 520,260 500,400 470,400" fill="#6d8f5a"/><path d="M470,400 C480,340 495,300 488,262" stroke="#5aa9d6" stroke-width="6" fill="none"/><line x1="0" y1="200" x2="400" y2="196" stroke="#bfb7a6" stroke-width="2"/><line x1="545" y1="200" x2="960" y2="196" stroke="#bfb7a6" stroke-width="2"/><line x1="0" y1="240" x2="400" y2="236" stroke="#bfb7a6" stroke-width="2"/><line x1="545" y1="240" x2="960" y2="236" stroke="#bfb7a6" stroke-width="2"/><line x1="0" y1="290" x2="400" y2="286" stroke="#bfb7a6" stroke-width="2"/><line x1="545" y1="290" x2="960" y2="286" stroke="#bfb7a6" stroke-width="2"/><line x1="0" y1="340" x2="400" y2="336" stroke="#bfb7a6" stroke-width="2"/><line x1="545" y1="340" x2="960" y2="336" stroke="#bfb7a6" stroke-width="2"/><circle cx="354.3" cy="171.5" r="6.3" fill="#6f8a52"/><circle cx="24.3" cy="171.7" r="6.2" fill="#6f8a52"/><circle cx="35" cy="181.1" r="8.7" fill="#6f8a52"/><circle cx="241.6" cy="177.6" r="7.8" fill="#6f8a52"/><circle cx="319.7" cy="170.5" r="6.7" fill="#6f8a52"/><circle cx="108.7" cy="180.9" r="5.9" fill="#6f8a52"/><circle cx="364.3" cy="177.4" r="6.7" fill="#6f8a52"/><circle cx="209.5" cy="170.9" r="6.9" fill="#6f8a52"/><circle cx="181.6" cy="177.6" r="6.1" fill="#6f8a52"/><circle cx="223.1" cy="180.2" r="5.9" fill="#6f8a52"/><circle cx="154.7" cy="172.8" r="7.5" fill="#6f8a52"/><circle cx="234.1" cy="178.5" r="8.9" fill="#6f8a52"/><circle cx="303.4" cy="170.8" r="5.1" fill="#6f8a52"/><circle cx="197.5" cy="172.6" r="7.9" fill="#6f8a52"/><circle cx="356.2" cy="177.9" r="8.4" fill="#6f8a52"/><circle cx="327.7" cy="175.9" r="8" fill="#6f8a52"/><circle cx="359.6" cy="170.7" r="7.8" fill="#6f8a52"/><circle cx="104.3" cy="173.4" r="8.4" fill="#6f8a52"/><circle cx="221.7" cy="179.7" r="8.9" fill="#6f8a52"/><circle cx="377" cy="175.8" r="8.3" fill="#6f8a52"/><circle cx="309.5" cy="179.9" r="6.6" fill="#6f8a52"/><circle cx="27.9" cy="181.9" r="6.2" fill="#6f8a52"/><circle cx="117.6" cy="177.2" r="7.3" fill="#6f8a52"/><circle cx="206.7" cy="173.6" r="8" fill="#6f8a52"/><circle cx="305.4" cy="177.1" r="5.2" fill="#6f8a52"/><circle cx="307.7" cy="170" r="8.1" fill="#6f8a52"/><circle cx="778.2" cy="178.6" r="5.4" fill="#6f8a52"/><circle cx="571.7" cy="178.3" r="9" fill="#6f8a52"/><circle cx="743.8" cy="172.9" r="7.8" fill="#6f8a52"/><circle cx="760.9" cy="176.8" r="5.3" fill="#6f8a52"/><circle cx="846.7" cy="171.7" r="6.4" fill="#6f8a52"/><circle cx="815.9" cy="172.5" r="6.9" fill="#6f8a52"/><circle cx="947.7" cy="179.5" r="6.6" fill="#6f8a52"/><circle cx="902.3" cy="174.3" r="6.7" fill="#6f8a52"/><circle cx="898.3" cy="180.4" r="7.2" fill="#6f8a52"/><circle cx="735.6" cy="181.3" r="8.5" fill="#6f8a52"/><circle cx="720.5" cy="177.7" r="8.2" fill="#6f8a52"/><circle cx="588.8" cy="172.8" r="5.3" fill="#6f8a52"/><circle cx="710.1" cy="171.5" r="6.3" fill="#6f8a52"/><circle cx="713.9" cy="179" r="6.1" fill="#6f8a52"/><circle cx="884.9" cy="172.7" r="7.8" fill="#6f8a52"/><circle cx="605.7" cy="172.7" r="7" fill="#6f8a52"/><circle cx="831" cy="173.7" r="7.2" fill="#6f8a52"/><circle cx="709.9" cy="173.1" r="6.7" fill="#6f8a52"/><circle cx="588.2" cy="171.5" r="7.1" fill="#6f8a52"/><circle cx="807.9" cy="178.7" r="5.1" fill="#6f8a52"/><circle cx="869" cy="172.6" r="8" fill="#6f8a52"/><circle cx="607.4" cy="171.2" r="8.7" fill="#6f8a52"/><circle cx="902.2" cy="175.2" r="6.1" fill="#6f8a52"/><circle cx="838.1" cy="170.7" r="7" fill="#6f8a52"/><circle cx="780.8" cy="180.9" r="6.1" fill="#6f8a52"/><circle cx="777.2" cy="181.3" r="7.4" fill="#6f8a52"/><ellipse cx="200" cy="215" rx="34" ry="8" fill="#9a907c"/><ellipse cx="760" cy="230" rx="26" ry="6" fill="#9a907c"/></g></svg>